PathFileType        4      (X/Y/Z)      C:\Users\pc\Desktop\IMUTRC\Sujet_01\Sujet_01_velo_100.trc         
DataRate	CameraRate	NumFrames	NumMarkers	Units	OrigDataRate	OrigDataStartFrame	OrigNumFrames
60.0	60.0	4	64	mm	60.0	1	995
Frame#	Time	pHipOrigin			pRightASI			pLeftASI			pRightCSI			pLeftCSI			pRightIschialTub			pLeftIschialTub			pSacrum			pL5SpinalProcess			pL3SpinalProcess			pT12SpinalProcess			pIJ			pT4SpinalProcess			pT8SpinalProcess			pPX			pC7SpinalProcess			pTopOfHead			pRightAuricularis			pLeftAuricularis			pBackOfHead			pRightAcromion			pLeftAcromion			pRightArmLatEpicondyle			pRightArmMedEpicondyle			pLeftArmLatEpicondyle			pLeftArmMedEpicondyle			pRightUlnarStyloid			pRightRadialStyloid			pRightOlecranon			pLeftUlnarStyloid			pLeftRadialStyloid			pLeftOlecranon			pRightTopOfHand			pRightPinky			pRightBallHand			pLeftTopOfHand			pLeftPinky			pLeftBallHand			pRightGreaterTrochanter			pRightKneeLatEpicondyle			pRightKneeMedEpicondyle			pRightPatella			pLeftGreaterTrochanter			pLeftKneeLatEpicondyle			pLeftKneeMedEpicondyle			pLeftPatella			pRightTibialTub			pRightLatMalleolus			pRightMedMalleolus			pLeftTibialTub			pLeftLatMalleolus			pLeftMedMalleolus			pRightHeelFoot			pRightFirstMetatarsal			pRightFifthMetatarsal			pRightPivotFoot			pRightHeelCenter			pRightToe			pLeftHeelFoot			pLeftFirstMetatarsal			pLeftFifthMetatarsal			pLeftPivotFoot			pLeftHeelCenter			pLeftToe			
		X1	Y1	Z1	X2	Y2	Z2	X3	Y3	Z3	X4	Y4	Z4	X5	Y5	Z5	X6	Y6	Z6	X7	Y7	Z7	X8	Y8	Z8	X9	Y9	Z9	X10	Y10	Z10	X11	Y11	Z11	X12	Y12	Z12	X13	Y13	Z13	X14	Y14	Z14	X15	Y15	Z15	X16	Y16	Z16	X17	Y17	Z17	X18	Y18	Z18	X19	Y19	Z19	X20	Y20	Z20	X21	Y21	Z21	X22	Y22	Z22	X23	Y23	Z23	X24	Y24	Z24	X25	Y25	Z25	X26	Y26	Z26	X27	Y27	Z27	X28	Y28	Z28	X29	Y29	Z29	X30	Y30	Z30	X31	Y31	Z31	X32	Y32	Z32	X33	Y33	Z33	X34	Y34	Z34	X35	Y35	Z35	X36	Y36	Z36	X37	Y37	Z37	X38	Y38	Z38	X39	Y39	Z39	X40	Y40	Z40	X41	Y41	Z41	X42	Y42	Z42	X43	Y43	Z43	X44	Y44	Z44	X45	Y45	Z45	X46	Y46	Z46	X47	Y47	Z47	X48	Y48	Z48	X49	Y49	Z49	X50	Y50	Z50	X51	Y51	Z51	X52	Y52	Z52	X53	Y53	Z53	X54	Y54	Z54	X55	Y55	Z55	X56	Y56	Z56	X57	Y57	Z57	X58	Y58	Z58	X59	Y59	Z59	X60	Y60	Z60	X61	Y61	Z61	X62	Y62	Z62	X63	Y63	Z63	X64	Y64	Z64	
1	0.0	0.0	1250.01138	7.654112177073829E-14	50.11418999999999	1330.39549	136.65891000000008	94.89708000000002	1332.70572	-108.6399799999999	22.687629999999984	1397.33288	109.70624000000008	59.47358000000001	1399.22846	-91.9352499999999	-66.34503	1205.05078	39.570070000000065	-47.92242999999999	1205.99857	-61.25067999999994	-57.22259	1278.03031	-10.18869999999993	-9.35939	1365.99671	-0.059239999999917504	47.3893	1456.45104	14.394500000000095	102.71632	1536.71668	29.559080000000108	334.68696	1559.81896	75.82289000000014	233.33309	1655.36765	64.03480000000013	167.46196	1607.56369	47.15236000000012	247.54988	1490.74905	53.07602000000012	271.24453	1682.49802	74.99357000000013	479.75747	1809.61983	65.93037000000017	425.31901	1741.20153	140.80547000000018	407.72573	1739.18748	10.188700000000157	378.69978	1775.26259	80.02869000000015	234.75476999999998	1634.16093	242.75171000000014	308.91903	1625.09773	-103.13096999999986	303.1138399999999	1415.22235	312.82865000000015	287.65307999999993	1390.81685	267.27568000000014	423.60115	1409.71334	-100.46532999999985	384.68268	1383.05686	-74.28273999999988	405.8301599999999	1254.92802	392.97581000000014	438.64724999999993	1262.39184	364.6014600000001	277.7013299999999	1403.25655	304.47628000000014	561.68173	1259.60772	-122.56058999999986	573.88448	1265.76833	-80.73952999999986	396.94466	1397.15517	-109.05463999999988	564.46585	1193.26269	442.20145000000014	485.68113999999997	1211.03368	445.81488000000013	438.29182999999995	1232.892	402.3352000000001	717.05942	1203.39215	-49.40334999999985	663.74645	1223.29566	-106.80364999999985	597.99379	1240.05963	-108.99539999999986	-19.548090000000016	1242.13291	149.3355500000001	278.88605999999993	1126.20682	279.8338400000001	310.51842	1125.25904	220.59721000000008	304.95017999999993	1161.92651	252.58499000000012	11.077250000000017	1232.53658	-147.5584499999999	224.68454000000003	969.28899	-215.62133999999992	248.73461000000003	965.73479	-152.94897999999992	263.06988	993.75372	-190.5049999999999	330.71810999999997	1089.7763	268.63812000000013	200.10133999999996	734.23804	238.66439000000008	229.42346999999998	732.99407	186.1807300000001	271.54072	926.40167	-201.0491199999999	85.00457000000003	596.27593	-225.27690999999996	103.84181000000001	586.97577	-168.94286999999997	179.60545999999997	600.30402	164.14470000000006	353.16879	589.22677	231.49675000000008	302.87688999999995	576.55013	302.8176600000001	349.25917999999996	580.63746	280.2485000000001	215.08820999999998	593.9657	188.07630000000006	409.62129999999996	577.08326	322.18803000000014	-12.202749999999979	495.21823	-171.60851999999997	148.26929000000004	410.62832	-128.48424999999995	140.33158000000003	396.17459	-215.14743999999993	165.98104000000004	390.90253	-170.48301999999995	23.93160000000002	471.46434	-170.95691999999997	231.14133000000004	356.72299	-170.71996999999993	
2	0.017	0.0	1250.01138	7.654112177073829E-14	49.521819999999984	1329.27	137.4882200000001	93.47540000000001	1335.31213	-107.8698999999999	21.147479999999987	1396.14815	111.54258000000009	57.28182000000002	1401.12403	-90.21738999999991	-65.63419	1203.68834	39.21465000000006	-47.567009999999996	1206.17628	-61.66532999999993	-57.57801	1277.43794	-9.65556999999993	-10.72183	1365.93747	1.3032100000000824	45.31602	1456.80646	15.934650000000094	100.22838	1537.42752	30.8622800000001	332.3175	1561.29988	76.23754000000014	230.66744	1656.61162	64.21251000000012	164.85554	1608.57071	47.98167000000012	245.18041	1491.93378	54.37923000000012	268.63812	1683.9197	74.81586000000013	476.97335	1811.39693	65.51571000000017	422.59412	1742.86015	140.39081000000016	405.06008	1740.90534	9.714810000000156	375.91566	1776.92121	79.61403000000016	232.44453999999996	1636.5304	243.22561000000013	305.42407	1626.10475	-103.01249999999986	301.57368999999994	1417.71028	313.95414000000017	285.93521999999996	1393.06785	268.5788800000002	420.75779	1411.13502	-99.81371999999986	381.9578	1384.4193	-73.57189999999987	403.93458999999996	1257.17902	394.27901000000014	436.75167999999996	1264.52436	365.9046700000001	276.04269999999997	1405.68525	305.66101000000015	559.25303	1261.26634	-121.49432999999986	571.39654	1267.54543	-79.73250999999986	394.21978	1398.51762	-108.40302999999987	562.2741	1195.03979	443.68236000000013	483.6078499999999	1213.10696	447.1773300000001	436.2777899999999	1235.08375	403.6976400000001	714.57148	1205.28773	-48.10013999999985	661.31775	1225.01352	-105.61890999999984	595.50585	1241.77749	-107.86989999999986	-20.495870000000018	1237.0978	148.74318000000008	270.23750999999993	1099.37263	275.5095700000001	302.58071	1100.37965	216.62836000000007	298.31566999999995	1135.32927	250.63018000000008	13.269010000000018	1234.60986	-147.8546299999999	242.15935000000002	983.92044	-213.9034699999999	264.84698	980.7809	-150.7572299999999	278.58987	1010.04379	-187.6024099999999	323.49123999999995	1066.37783	265.7947600000001	208.86835999999997	704.7382	244.8842300000001	239.13827999999998	703.13881	192.93371000000008	284.33583	940.61846	-200.27904999999993	76.23754000000002	624.17638	-230.90438999999998	95.13403000000002	612.03287	-175.10347999999996	191.45278999999996	570.62646	171.84547000000006	365.31229999999994	563.45883	238.78286000000008	315.43505999999996	550.13059	310.3407100000001	361.69886999999994	555.04723	287.6530800000001	227.11323999999996	565.11746	195.65859000000006	422.1794699999999	552.97395	329.4149000000001	-24.93861999999998	528.33151	-178.06530999999998	130.97219000000004	436.10008	-133.93401999999995	123.09372000000003	422.29794	-220.71568999999994	148.15081000000004	415.66344	-175.87355999999994	10.010990000000021	502.85976	-177.23599999999996	211.41554000000002	378.81825	-175.75507999999994	
3	0.033	0.0	1250.01138	7.654112177073829E-14	48.929459999999985	1328.1445	138.37677000000008	91.99449000000001	1337.91854	-107.0405899999999	19.607319999999987	1394.96342	113.37891000000009	55.030830000000016	1403.0196	-88.38104999999992	-64.92335	1202.38513	38.799990000000065	-47.211589999999994	1206.35399	-62.07998999999994	-57.99266	1276.78634	-9.122439999999928	-12.14351	1365.87823	2.665650000000082	43.24274	1457.10264	17.474810000000094	97.79968	1538.07912	32.22473000000011	329.8888	1562.84003	76.71144000000014	228.06103	1657.85559	64.33098000000012	162.24913	1609.57773	48.75175000000012	242.81095	1493.11852	55.62320000000012	265.97247	1685.28215	74.63815000000012	474.18923	1813.17403	65.16029000000017	419.81	1744.57801	139.97616000000016	402.39443	1742.56397	9.300150000000157	373.19077	1778.5206	79.14014000000016	230.13430999999997	1638.89986	243.64026000000015	301.86987	1627.05254	-102.83478999999986	300.0927699999999	1420.13899	315.02040000000017	284.15811999999994	1395.2596	269.94133000000016	417.91443	1412.5567	-99.16211999999986	379.29215	1385.78174	-72.80181999999988	402.03900999999996	1259.37077	395.5822200000001	434.85610999999994	1266.65688	367.2078700000001	274.44330999999994	1408.05471	306.9049800000002	556.82433	1262.92497	-120.42806999999986	568.9086	1269.32252	-78.66624999999986	391.43566	1399.82082	-107.69218999999987	560.14158	1196.81689	445.1632800000001	481.5345699999999	1215.12101	448.59901000000013	434.3229799999999	1237.21627	405.06008000000014	712.08354	1207.1833	-46.85616999999984	658.82981	1226.79062	-104.37493999999984	593.07715	1243.49535	-106.74440999999986	-21.68061000000002	1232.12192	147.97310000000007	260.4042299999999	1073.30851	269.5859100000001	293.57674	1076.15187	211.1785900000001	290.49643999999995	1109.26515	247.19446000000008	15.401520000000017	1236.74238	-148.0915799999999	258.80484	999.49967	-211.6524799999999	280.13003	996.71555	-147.9730999999999	293.16209	1027.10394	-184.10744999999991	316.2051399999999	1043.0386	262.8329300000001	217.57613999999998	676.30461	251.57797000000005	248.79384999999996	674.40904	200.21981000000005	297.0717	955.0722	-199.4497399999999	68.29984000000003	653.85393	-235.82102999999998	87.01861000000002	638.98554	-180.67171999999997	203.30011999999996	540.94891	179.54623000000007	377.39656999999994	537.6909	246.12820000000008	327.99321999999995	523.77029	317.8637600000001	374.07931999999994	529.51624	294.9984200000001	239.07903999999996	536.32846	203.30012000000005	434.67839999999995	528.86464	336.7010100000001	-37.43754999999998	561.6225	-184.58133999999998	113.61586000000001	462.04572	-139.50226999999998	105.79662000000003	448.83595	-226.34316999999996	130.08364000000003	440.95748	-181.32332999999994	-3.7319099999999774	534.55136	-183.51507999999998	191.63050000000004	401.03199	-180.84942999999996	
4	0.05	0.0	1250.01138	7.654112177073829E-14	49.04792999999999	1326.95977	138.9691400000001	90.21739000000001	1340.28801	-106.5666999999999	18.718779999999985	1393.77869	115.03754000000009	52.60213000000001	1404.73746	-86.90013999999991	-64.09403	1201.14116	38.62228000000007	-47.152359999999994	1206.59093	-62.31693999999994	-58.34808	1276.19397	-8.352359999999928	-13.38748	1365.75976	4.028090000000081	41.52488	1457.39883	18.896490000000092	95.78563	1538.67148	33.35022000000011	327.99322	1564.02476	76.53373000000015	225.98775	1658.86261	64.21251000000012	160.11661	1610.40704	49.28488000000012	240.91538	1494.0663	56.45251000000012	263.89919	1686.40764	74.10503000000013	472.11595	1814.418	64.39022000000017	417.67748	1745.82198	139.14685000000017	400.43962	1743.7487	8.470840000000157	371.11749	1779.76457	78.25159000000015	228.41644999999997	1640.7362	243.75874000000013	298.78957	1627.76338	-103.01249999999986	298.90803999999997	1422.21227	316.14590000000015	282.73643999999996	1396.97746	271.30377000000016	415.07107	1413.44525	-98.56974999999986	376.56726	1386.78876	-71.85402999999987	400.32114999999993	1261.14787	397.0631400000001	433.1974799999999	1268.25627	368.74803000000014	273.14009999999996	1410.00952	308.08972000000017	554.45486	1264.22817	-119.12485999999986	566.4799	1270.80344	-77.36303999999986	388.65153	1400.70937	-106.92211999999988	558.24601	1198.2978	446.8219100000001	479.63899999999995	1216.77963	450.19839000000013	432.54587999999995	1238.93413	406.6002300000001	709.71407	1208.9604	-45.256789999999846	656.51958	1228.33078	-102.89402999999984	590.70768	1244.91703	-105.38196999999985	-22.687630000000016	1227.50146	146.9660800000001	248.67537999999996	1046.65203	262.06285000000014	282.73644	1051.03554	204.3071400000001	280.95933999999994	1082.13477	242.1001100000001	17.060150000000018	1239.17108	-148.3285199999999	275.33186	1017.80379	-210.40850999999992	295.53155	1015.31585	-146.3737099999999	307.43811	1047.00745	-181.79721999999992	306.25337999999994	1018.98852	257.9162900000001	220.65644999999998	648.81882	253.65125000000006	252.82193999999998	646.86401	202.82622000000006	309.98529	972.96166	-199.21278999999993	65.75266000000003	684.71622	-239.73063999999997	84.11602000000003	667.7153	-185.05522999999997	208.27598999999998	512.45609	181.50104000000005	382.49092999999993	510.91594	247.96454000000008	333.20604999999995	496.34373	319.70010000000013	379.23290999999995	502.56358	296.83476000000013	244.11415999999997	508.19106	205.25493000000006	439.95045999999996	502.50434	338.47811000000013	-43.59815999999998	594.14341	-190.09034999999997	103.72334000000001	489.35381	-144.35966999999997	95.90411000000003	476.61793	-231.31903999999997	119.71723000000003	467.79167	-186.18072999999995	-10.840299999999976	565.94677	-188.90561999999997	179.96088000000003	425.55596	-185.41064999999995	
